<?xml version="1.0" encoding="iso-8859-1"?>
<!-- Generator: Adobe Illustrator 19.0.0, SVG Export Plug-In . SVG Version: 6.00 Build 0)  -->
<svg version="1.1" id="Capa_1" xmlns="http://www.w3.org/2000/svg" xmlns:xlink="http://www.w3.org/1999/xlink" x="0px" y="0px"
	 viewBox="0 0 480.137 480.137" style="enable-background:new 0 0 480.137 480.137;" xml:space="preserve">
<g>
	<g>
		<g>
			<path d="M459.063,21.086c-28.185-27.986-73.671-27.986-101.856,0c-0.75,0.753-1.343,1.648-1.744,2.632
				c-0.35,0.879-0.537,1.814-0.552,2.76c-0.023,0.09-0.042,0.18-0.056,0.272c0.001,1.046,0.208,2.082,0.608,3.048
				c0.395,0.981,0.986,1.871,1.736,2.616l39.624,39.624l-15.32,15.312c-38.382-35.478-88.725-55.188-140.992-55.2
				c-0.136-0.04-0.24-0.112-0.376-0.112s-0.24,0.072-0.376,0.072C187.485,32.132,137.14,51.86,98.767,87.358l-15.32-15.32
				l39.624-39.624c0.75-0.745,1.341-1.635,1.736-2.616c0.4-0.966,0.607-2.002,0.608-3.048c0-0.096-0.048-0.176-0.056-0.272
				c0.007-1.846-0.711-3.622-2-4.944c-0.12-0.136-0.16-0.304-0.288-0.432C94.942-7.031,49.332-7.035,21.199,21.094
				C-6.935,49.223-6.938,94.833,21.191,122.966c0.112,0.12,0.272,0.152,0.392,0.264c0.652,0.614,1.404,1.112,2.224,1.472
				c0.873,0.343,1.799,0.53,2.736,0.552c0.096,0,0.192,0.056,0.296,0.056c1.042-0.004,2.074-0.208,3.04-0.6
				c0.979-0.403,1.868-0.995,2.616-1.744l39.64-39.616l15.32,15.32C9.447,182.998,14.57,314.596,98.897,392.604
				c7.209,6.668,14.88,12.818,22.958,18.402l-55.384,55.376c-3.178,3.069-3.266,8.134-0.196,11.312
				c3.069,3.178,8.134,3.266,11.312,0.196c0.067-0.064,0.132-0.13,0.196-0.196l57.896-57.896
				c64.542,37.654,144.354,37.654,208.896,0l57.896,57.896c3.178,3.07,8.242,2.982,11.312-0.196c2.995-3.1,2.995-8.016,0-11.116
				l-55.384-55.376c94.495-65.369,118.106-194.964,52.737-289.459c-5.567-8.047-11.695-15.692-18.337-22.877l15.336-15.32
				l39.624,39.624c0.748,0.749,1.637,1.341,2.616,1.744c0.966,0.392,1.998,0.596,3.04,0.6c0.104,0,0.2-0.056,0.296-0.056
				c0.937-0.022,1.863-0.209,2.736-0.552c0.82-0.36,1.572-0.858,2.224-1.472c0.12-0.112,0.28-0.144,0.392-0.264
				C487.043,94.79,487.022,49.291,459.063,21.086z M27.271,105.59C8.823,80.739,14.013,45.639,38.864,27.19
				c19.835-14.724,46.972-14.724,66.807,0L27.271,105.59z M431.791,232.038h-39.656c-4.418,0-8,3.582-8,8s3.582,8,8,8h39.8
				c-4.277,99.685-84.115,179.523-183.8,183.8v-39.8c0-4.418-3.582-8-8-8s-8,3.582-8,8v39.8
				c-99.685-4.277-179.523-84.115-183.8-183.8h39.8c4.418,0,8-3.582,8-8s-3.582-8-8-8H48.479
				c1.817-47.961,21.617-93.483,55.464-127.512c0.128-0.112,0.288-0.152,0.408-0.272s0.16-0.28,0.272-0.408
				c34.022-33.858,79.547-53.66,127.512-55.464v39.656c0,4.418,3.582,8,8,8s8-3.582,8-8V48.382
				c47.965,1.803,93.491,21.605,127.512,55.464c0.112,0.128,0.152,0.288,0.272,0.408s0.28,0.16,0.408,0.272
				C410.173,138.556,429.973,184.077,431.791,232.038z M452.983,105.574l-78.4-78.4c24.742-18.557,59.843-13.542,78.4,11.2
				C467.916,58.286,467.916,85.663,452.983,105.574z"/>
			<path d="M353.903,165.11h0.016l-90.992,52.528c-12.287-12.592-32.456-12.839-45.048-0.552c-0.186,0.182-0.37,0.366-0.552,0.552
				l-49.416-28.528c-3.812-2.234-8.713-0.956-10.947,2.856c-2.234,3.812-0.956,8.713,2.856,10.947
				c0.03,0.018,0.061,0.035,0.092,0.053l49.496,28.576c-4.964,16.962,4.763,34.736,21.725,39.699
				c16.962,4.964,34.736-4.763,39.699-21.725c1.717-5.869,1.717-12.106,0-17.975l91.072-52.576c3.812-2.234,5.09-7.136,2.856-10.947
				C362.545,164.243,357.708,162.947,353.903,165.11z M240.135,256.038c-8.837,0-16-7.163-16-16s7.163-16,16-16s16,7.163,16,16
				S248.971,256.038,240.135,256.038z"/>
		</g>
	</g>
</g>
<g>
</g>
<g>
</g>
<g>
</g>
<g>
</g>
<g>
</g>
<g>
</g>
<g>
</g>
<g>
</g>
<g>
</g>
<g>
</g>
<g>
</g>
<g>
</g>
<g>
</g>
<g>
</g>
<g>
</g>
</svg>
