<?xml version="1.0"?>
<svg xmlns="http://www.w3.org/2000/svg" height="512px" viewBox="0 0 448.17721 448" width="512px"><g><path d="m447.707031 238.574219c.546875-8.292969.617188-16.613281.210938-24.914063-.101563-3.917968-3.074219-7.160156-6.96875-7.597656-27.214844-2.148438-50.875-19.5-61.101563-44.8125-10.222656-25.3125-5.253906-54.230469 12.835938-74.675781 2.464844-3.023438 2.355468-7.390625-.253906-10.289063-5.476563-6.265625-11.308594-12.207031-17.472657-17.800781-3.035156-2.6875-7.585937-2.746094-10.6875-.132813-20.761719 17.445313-49.558593 21.765626-74.523437 11.175782-24.964844-10.59375-41.871094-34.300782-43.75-61.355469-.273438-4.058594-3.492188-7.300781-7.550782-7.605469-8.285156-.5585935-16.597656-.628906-24.890624-.207031-3.902344.132813-7.128907 3.089844-7.605469 6.964844-2.15625 27.203125-19.507813 50.847656-44.808594 61.066406-25.296875 10.222656-54.203125 5.261719-74.648437-12.808594-3.015626-2.507812-7.421876-2.390625-10.304688.273438-6.253906 5.460937-12.1875 11.285156-17.765625 17.4375-2.75 3.023437-2.8125 7.625-.144531 10.722656 17.4375 20.761719 21.75 49.550781 11.15625 74.511719-10.589844 24.960937-34.292969 41.867187-61.339844 43.75-4.0625.269531-7.3125 3.484375-7.625 7.542968-.546875 8.285157-.613281 16.597657-.207031 24.890626.101562 3.921874 3.082031 7.167968 6.984375 7.605468 27.199218 2.160156 50.84375 19.507813 61.0625 44.808594 10.222656 25.300781 5.261718 54.203125-12.808594 74.648438-2.503906 3.015624-2.390625 7.417968.265625 10.304687 5.464844 6.261719 11.292969 12.195313 17.453125 17.777344 3.027344 2.738281 7.617188 2.800781 10.714844.140625 20.757812-17.445313 49.550781-21.761719 74.511718-11.171875 24.960938 10.59375 41.863282 34.300781 43.742188 61.347656.230469 4.078125 3.46875 7.339844 7.546875 7.601563 8.289063.558593 16.605469.625 24.902344.207031 3.917969-.085938 7.167969-3.0625 7.601562-6.957031 2.15625-27.203126 19.503907-50.847657 44.804688-61.066407 25.300781-10.222656 54.203125-5.261719 74.648437 12.808594 3.015625 2.5 7.414063 2.386719 10.296875-.265625 6.257813-5.46875 12.195313-11.300781 17.777344-17.460938 2.707031-3.03125 2.769531-7.59375.144531-10.699218-17.445312-20.761719-21.757812-49.554688-11.167968-74.519532 10.59375-24.960937 34.296874-41.867187 61.351562-43.75 4.066406-.222656 7.332031-3.433593 7.613281-7.496093zm-223.613281 89.597656c-57.4375 0-104-46.5625-104-104s46.5625-104 104-104 104 46.5625 104 104c-.066406 57.410156-46.589844 103.9375-104 104zm0 0" data-original="#000000" class="active-path" data-old_color="#504E4E" fill="#353535"/></g> </svg>
