<svg xmlns="http://www.w3.org/2000/svg" xmlns:xlink="http://www.w3.org/1999/xlink" version="1.1" style="" xml:space="preserve" width="354.35502754228264" height="240.6035488533759"><rect id="backgroundrect" width="100%" height="100%" x="0" y="0" fill="none" stroke="none" class="" style=""/>



















<g class="currentLayer" style=""><title>Layer 1</title><g id="svg_4" class="" stroke-width="1" stroke="none" filter="" opacity="1" stroke-dasharray="none">
	<g id="svg_5" stroke-width="1" stroke="none" stroke-opacity="1" filter="" opacity="1" stroke-dasharray="none">
		<path d="M140.75096115875243,71.60993988037109 c-5.824,-1.365 -11.52,2.027 -12.928,7.7650000000000015 l-10.987,43.947 l-10.987,-43.947 c-1.429,-5.7170000000000005 -7.275,-9.131 -12.928,-7.7650000000000015 c-5.7170000000000005,1.429 -9.173,7.211 -7.7650000000000015,12.928 l21.333,85.333 c1.173,4.757 5.461,8.085 10.347,8.085 c4.885,0 9.173,-3.3280000000000003 10.347,-8.085 l21.333,-85.333 C149.94596115875245,78.84193988037109 146.48996115875244,73.03893988037109 140.75096115875243,71.60993988037109 z" id="svg_6" stroke-width="1" stroke="none" stroke-opacity="1" filter="" opacity="1" stroke-dasharray="none"/>
	</g>
</g><g id="svg_7" class="" stroke-width="1" stroke="none" filter="" opacity="1" stroke-dasharray="none">
	<g id="svg_8" stroke-width="1" stroke="none" stroke-opacity="1" filter="" opacity="1" stroke-dasharray="none">
		<path d="M180.83596115875244,71.2899398803711 c-5.888,0 -10.667,4.779 -10.667,10.667 V167.2899398803711 c0,5.888 4.779,10.667 10.667,10.667 S191.50296115875244,173.17793988037107 191.50296115875244,167.2899398803711 v-85.333 C191.50296115875244,76.06893988037109 186.72396115875245,71.2899398803711 180.83596115875244,71.2899398803711 z" id="svg_9" stroke-width="1" stroke="none" stroke-opacity="1" filter="" opacity="1" stroke-dasharray="none"/>
	</g>
</g><g id="svg_10" class="" stroke-width="1" stroke="none" filter="" opacity="1" stroke-dasharray="none">
	<g id="svg_11" stroke-width="1" stroke="none" stroke-opacity="1" filter="" opacity="1" stroke-dasharray="none">
		<path d="M244.83596115875247,71.2899398803711 H223.50296115875244 c-5.888,0 -10.667,4.779 -10.667,10.667 V167.2899398803711 c0,5.888 4.779,10.667 10.667,10.667 s10.667,-4.779 10.667,-10.667 v-32 h10.667 c17.643,0 32,-14.357 32,-32 C276.83596115875247,85.6469398803711 262.47896115875244,71.2899398803711 244.83596115875247,71.2899398803711 zM244.83596115875247,113.9569398803711 h-10.667 v-21.333 h10.667 c5.867,0 10.667,4.8 10.667,10.667 C255.50296115875244,109.15693988037108 250.70296115875243,113.9569398803711 244.83596115875247,113.9569398803711 z" id="svg_12" stroke-width="1" stroke="none" stroke-opacity="1" filter="" opacity="1" stroke-dasharray="none"/>
	</g>
</g><g id="svg_13" class="">
</g><g id="svg_14" class="">
</g><g id="svg_15" class="">
</g><g id="svg_16" class="">
</g><g id="svg_17" class="">
</g><g id="svg_18" class="">
</g><g id="svg_19" class="">
</g><g id="svg_20" class="">
</g><g id="svg_21" class="">
</g><g id="svg_22" class="">
</g><g id="svg_23" class="">
</g><g id="svg_24" class="">
</g><g id="svg_25" class="">
</g><g id="svg_26" class="">
</g><g id="svg_27" class="">
</g><rect fill="none" stroke="#000000" stroke-width="15" stroke-dashoffset="" fill-rule="nonzero" id="svg_1" x="52.31360077857971" y="42.49112319946289" width="253.01181559898484" height="160.14791467393712" style="color: rgb(0, 0, 0);" class=""/></g><defs><filter id="f009" xmlns:inkscape="http://www.inkscape.org/namespaces/inkscape" inkscape:label="Roughen" inkscape:menu="ABCs" inkscape:menu-tooltip="Small-scale roughening to edges and content" color-interpolation-filters="sRGB">
            <feTurbulence numOctaves="3" seed="0" type="turbulence" baseFrequency=".04" result="result91"/>
            <feDisplacementMap scale="6.6" yChannelSelector="G" xChannelSelector="R" in="SourceGraphic" in2="result91"/>
        </filter><filter id="f002" xmlns:inkscape="http://www.inkscape.org/namespaces/inkscape" inkscape:label="Smart jelly" inkscape:menu="Bevels" inkscape:menu-tooltip="Same as Matte jelly but with more controls" height="1" width="1" y="0" x="0" color-interpolation-filters="sRGB">
            <feBlend result="result3" mode="normal" in2="result91"/>
            <feComposite result="result4" operator="arithmetic" k2="1" in2="result3"/>
            <feColorMatrix id="feColorMatrix3006" in="result4" result="result0" values="1 0 0 0 0 0 1 0 0 0 0 0 1 0 0 0 0 0 0.85 0 "/>
            <feGaussianBlur stdDeviation="7" in="SourceAlpha"/>
            <feSpecularLighting result="result1" specularExponent="25" specularConstant="1" surfaceScale="5">
                <feDistantLight azimuth="225" elevation="60"/>
            </feSpecularLighting>
            <feComposite in2="result0" k1=".5" k2="1" operator="arithmetic" k3=".5"/>
            <feComposite result="result2" in2="result0" operator="atop"/>
            <feComposite operator="in" in2="SourceGraphic"/>
        </filter></defs></svg>