<?xml version='1.0' encoding='utf-8'?>
<!DOCTYPE svg PUBLIC '-//W3C//DTD SVG 1.1//EN' 'http://www.w3.org/Graphics/SVG/1.1/DTD/svg11.dtd'>
<svg version="1.1" xmlns="http://www.w3.org/2000/svg" viewBox="0 0 512 512" xmlns:xlink="http://www.w3.org/1999/xlink" enable-background="new 0 0 512 512">
  <g>
    <path d="m465.4,122.4h-96c23.8-36.4 18.8-81.9-11.3-101.9-30.3-20.1-74.5-6.9-98.8,29.6-1.2,1.8-2.3,3.6-3.3,5.4-1-1.8-2.1-3.6-3.3-5.4-24.3-36.5-68.5-49.8-98.8-29.6-30.1,20-35.1,65.5-11.3,101.9h-96c-19.6,0-35.6,15.9-35.6,35.6v307.5c0,19.5 16,35.5 35.6,35.5h418.8c19.6,0 35.6-16 35.6-35.6v-307.4c-5.68434e-14-19.7-16-35.6-35.6-35.6zm-5.2,40.8v128.1h-183.8v-128.1h183.8zm-167.6-91c10.4-15.7 24.6-21.2 33.6-21.2 3.8,0 7,0.9 9.8,2.7 6.2,4.1 7.8,11.8 8.3,16.1 1.1,10-2.1,21.3-8.5,31.1-10.4,15.6-24.6,21.2-33.6,21.2-3.8,0-7-0.9-9.8-2.7-10.2-6.9-12.6-27.9 0.2-47.2zm-124.9-2.4c0.5-4.2 2.1-12 8.3-16.1 2.8-1.8 5.9-2.7 9.8-2.7 9,0 23.2,5.5 33.6,21.2 12.9,19.3 10.4,40.4 0.3,47.1-2.8,1.8-5.9,2.7-9.8,2.7-9,0-23.2-5.5-33.6-21.2-6.5-9.7-9.6-21-8.6-31zm67.9,93.4v128.1h-183.8v-128.1h183.8zm-183.8,168.9h183.8v128.1h-183.8v-128.1zm224.6,128.1v-128.1h183.7v128.1h-183.7z"/>
  </g>
</svg>
